<svg xmlns="http://www.w3.org/2000/svg" xmlns:xlink="http://www.w3.org/1999/xlink" width="500" zoomAndPan="magnify" viewBox="0 0 375 374.999991" height="500" preserveAspectRatio="xMidYMid meet" version="1.0"><defs><g/><clipPath id="64958568d1"><path d="M 142 102.609375 L 233 102.609375 L 233 194 L 142 194 Z M 142 102.609375 " clip-rule="nonzero"/></clipPath></defs><g clip-path="url(#64958568d1)"><path fill="#1e4edd" d="M 219.0625 117.804688 C 219.0625 117.804688 223.210938 120.992188 229.152344 121.472656 C 229.824219 121.519531 230.160156 122.289062 229.730469 122.816406 C 227.835938 125.117188 222.828125 129.40625 213.644531 126.027344 C 213.644531 126.027344 216.714844 129.957031 220.238281 131.78125 C 220.8125 132.089844 220.8125 132.90625 220.238281 133.21875 C 217.195312 134.847656 209.882812 137.675781 205.039062 130.871094 C 205.039062 130.871094 199.625 139.066406 190.683594 131.996094 L 190.683594 190.890625 C 190.683594 192.085938 189.988281 193.117188 188.980469 193.621094 C 188.550781 193.835938 188.070312 193.933594 187.542969 193.933594 C 185.890625 193.886719 184.59375 192.472656 184.59375 190.792969 L 184.59375 131.972656 L 184.257812 131.972656 C 175.292969 139.066406 169.902344 130.84375 169.902344 130.84375 C 165.058594 137.628906 157.773438 134.800781 154.703125 133.195312 C 154.128906 132.882812 154.128906 132.042969 154.703125 131.757812 C 158.253906 129.933594 161.296875 126.003906 161.296875 126.003906 C 152.140625 129.382812 147.128906 125.09375 145.238281 122.816406 C 144.804688 122.3125 145.140625 121.546875 145.8125 121.472656 C 151.757812 120.992188 155.902344 117.804688 155.902344 117.804688 C 145.597656 118.667969 142.792969 112.554688 142.046875 109.777344 C 141.882812 109.175781 142.410156 108.625 143.007812 108.769531 C 147.011719 109.632812 151.925781 109.558594 157.125 109.007812 C 159.667969 108.746094 162.253906 108.363281 164.867188 107.90625 C 176.613281 105.84375 177.378906 122.839844 184.28125 122.839844 L 184.617188 122.839844 L 184.617188 117.132812 C 181.71875 115.863281 179.777344 112.796875 180.160156 109.320312 C 180.566406 105.84375 183.394531 103.066406 186.871094 102.730469 C 187.972656 102.609375 189.054688 102.753906 190.035156 103.066406 C 193.03125 104.070312 195.214844 106.898438 195.214844 110.230469 C 195.214844 113.324219 193.367188 115.960938 190.707031 117.132812 L 190.707031 122.839844 C 197.609375 122.839844 198.351562 105.867188 210.121094 107.90625 C 218.082031 109.296875 226.039062 110.039062 231.984375 108.769531 C 232.582031 108.648438 233.109375 109.199219 232.941406 109.777344 C 232.175781 112.53125 229.371094 118.667969 219.0625 117.804688 Z M 219.0625 117.804688 " fill-opacity="1" fill-rule="nonzero"/></g><path fill="#30d1ff" d="M 213.335938 140.578125 C 213.335938 126.769531 202.1875 125.429688 198.019531 127.679688 C 197.273438 128.089844 196.769531 128.59375 196.578125 129.167969 C 195.308594 132.980469 197.203125 138.898438 204.203125 139.738281 C 204.203125 139.738281 208.707031 146.113281 187.664062 149.972656 C 166.617188 146.136719 171.125 139.738281 171.125 139.738281 C 178.097656 138.898438 180.015625 132.980469 178.746094 129.167969 C 178.648438 128.855469 178.457031 128.566406 178.171875 128.304688 C 175.078125 125.308594 161.992188 125.597656 161.992188 140.578125 C 161.992188 147.648438 167.265625 151.410156 173.90625 153.832031 C 167.242188 157.164062 165.800781 161.8125 167.074219 166.585938 C 167.816406 169.386719 171.484375 173.222656 179.203125 176.074219 C 177.429688 177.273438 176.179688 178.710938 175.796875 180.558594 C 175.007812 184.296875 176.851562 186.957031 178.410156 188.445312 C 178.816406 188.828125 179.464844 188.445312 179.320312 187.894531 C 179.320312 187.867188 179.296875 187.84375 179.296875 187.796875 C 178.484375 184.488281 180.953125 181.0625 187.6875 178.640625 C 194.519531 181.085938 196.964844 184.5625 196.050781 187.894531 C 195.910156 188.421875 196.578125 188.804688 196.964844 188.421875 C 198.519531 186.933594 200.367188 184.273438 199.574219 180.535156 C 199.191406 178.710938 197.921875 177.273438 196.171875 176.050781 C 203.890625 173.222656 207.558594 169.363281 208.300781 166.558594 C 209.570312 161.765625 208.132812 157.140625 201.46875 153.808594 C 208.085938 151.433594 213.335938 147.671875 213.335938 140.578125 Z M 200.917969 164.066406 C 200.917969 168.285156 194.183594 170.132812 187.640625 172.335938 C 181.121094 170.132812 174.359375 168.285156 174.359375 164.066406 C 174.359375 160.375 180.351562 158.914062 187.640625 157.355469 C 194.925781 158.914062 200.917969 160.351562 200.917969 164.066406 Z M 200.917969 164.066406 " fill-opacity="1" fill-rule="nonzero"/><path fill="#30a8ff" d="M 196.125 176.074219 C 194.636719 176.628906 192.984375 177.128906 191.1875 177.585938 C 189.890625 177.921875 188.71875 178.28125 187.640625 178.664062 C 186.558594 178.28125 185.386719 177.921875 184.089844 177.585938 C 182.292969 177.128906 180.640625 176.628906 179.152344 176.074219 C 181.40625 174.542969 184.5 173.390625 187.640625 172.3125 C 190.777344 173.390625 193.871094 174.542969 196.125 176.074219 Z M 189.222656 150.238281 C 188.667969 150.140625 188.167969 150.046875 187.664062 149.972656 C 187.160156 150.070312 186.632812 150.164062 186.105469 150.238281 C 180.855469 151.101562 176.875 152.347656 173.90625 153.832031 C 178.265625 155.414062 183.203125 156.398438 187.664062 157.355469 C 192.121094 156.398438 197.082031 155.414062 201.421875 153.832031 C 198.472656 152.347656 194.46875 151.125 189.222656 150.238281 Z M 189.222656 150.238281 " fill-opacity="1" fill-rule="nonzero"/><path fill="#ffffff" d="M 170.691406 132.835938 C 170.117188 132.835938 169.589844 132.476562 169.375 131.949219 C 169.160156 131.398438 169.324219 130.773438 169.78125 130.390625 C 170.238281 129.980469 170.933594 129.957031 171.433594 130.269531 C 171.914062 130.582031 172.179688 131.15625 172.058594 131.730469 C 171.9375 132.355469 171.363281 132.835938 170.691406 132.835938 Z M 205.640625 131.730469 C 205.761719 131.15625 205.519531 130.558594 205.015625 130.246094 C 204.511719 129.933594 203.84375 129.957031 203.386719 130.34375 C 202.929688 130.703125 202.765625 131.347656 202.957031 131.898438 C 203.148438 132.453125 203.699219 132.835938 204.273438 132.835938 C 204.921875 132.835938 205.496094 132.355469 205.640625 131.730469 Z M 205.640625 131.730469 " fill-opacity="1" fill-rule="nonzero"/><g fill="#ffffff" fill-opacity="1"><g transform="translate(104.315623, 234.229921)"><g><path d="M 13.875 -22.4375 C 15.582031 -22.4375 16.953125 -22.109375 17.984375 -21.453125 C 19.023438 -20.804688 19.785156 -19.9375 20.265625 -18.84375 C 20.753906 -17.757812 21 -16.5625 21 -15.25 C 21 -13.882812 20.753906 -12.640625 20.265625 -11.515625 C 19.785156 -10.390625 19.023438 -9.492188 17.984375 -8.828125 C 16.953125 -8.160156 15.582031 -7.828125 13.875 -7.828125 L 7.125 -7.828125 L 7.125 0 L 1.953125 0 L 1.953125 -22.4375 Z M 12.25 -11.8125 C 13.507812 -11.8125 14.390625 -12.132812 14.890625 -12.78125 C 15.398438 -13.4375 15.65625 -14.25 15.65625 -15.21875 C 15.65625 -16.164062 15.40625 -16.941406 14.90625 -17.546875 C 14.414062 -18.160156 13.539062 -18.46875 12.28125 -18.46875 L 7.125 -18.46875 L 7.125 -11.8125 Z M 12.25 -11.8125 "/></g></g></g><g fill="#ffffff" fill-opacity="1"><g transform="translate(128.506709, 234.229921)"><g><path d="M 7.09375 -4.078125 L 19.671875 -4.078125 L 19.671875 0 L 1.953125 0 L 1.953125 -22.4375 L 19.578125 -22.4375 L 19.578125 -18.390625 L 7.09375 -18.390625 L 7.09375 -13.359375 L 18.5625 -13.359375 L 18.5625 -9.546875 L 7.09375 -9.546875 Z M 7.09375 -4.078125 "/></g></g></g><g fill="#ffffff" fill-opacity="1"><g transform="translate(152.056766, 234.229921)"><g><path d="M 20.625 -5.46875 L 20.625 -3.953125 C 20.625 -3.023438 20.664062 -2.269531 20.75 -1.6875 C 20.84375 -1.101562 20.945312 -0.539062 21.0625 0 L 15.9375 0 C 15.800781 -0.40625 15.691406 -0.921875 15.609375 -1.546875 C 15.523438 -2.179688 15.484375 -2.957031 15.484375 -3.875 L 15.484375 -5.0625 C 15.484375 -6.320312 15.140625 -7.238281 14.453125 -7.8125 C 13.773438 -8.382812 12.875 -8.671875 11.75 -8.671875 L 7.125 -8.671875 L 7.125 0 L 1.953125 0 L 1.953125 -22.4375 L 13.796875 -22.4375 C 16.273438 -22.4375 18.132812 -21.867188 19.375 -20.734375 C 20.613281 -19.597656 21.234375 -18.117188 21.234375 -16.296875 C 21.234375 -14.722656 20.78125 -13.425781 19.875 -12.40625 C 18.976562 -11.382812 17.863281 -10.722656 16.53125 -10.421875 C 17.300781 -10.242188 17.992188 -9.96875 18.609375 -9.59375 C 19.234375 -9.226562 19.722656 -8.71875 20.078125 -8.0625 C 20.441406 -7.414062 20.625 -6.550781 20.625 -5.46875 Z M 12.65625 -12.359375 C 13.820312 -12.359375 14.644531 -12.628906 15.125 -13.171875 C 15.613281 -13.722656 15.859375 -14.519531 15.859375 -15.5625 C 15.859375 -16.5 15.601562 -17.21875 15.09375 -17.71875 C 14.59375 -18.21875 13.78125 -18.46875 12.65625 -18.46875 L 7.125 -18.46875 L 7.125 -12.359375 Z M 12.65625 -12.359375 "/></g></g></g><g fill="#ffffff" fill-opacity="1"><g transform="translate(177.02383, 234.229921)"><g><path d="M 7.09375 -4.078125 L 19.671875 -4.078125 L 19.671875 0 L 1.953125 0 L 1.953125 -22.4375 L 19.578125 -22.4375 L 19.578125 -18.390625 L 7.09375 -18.390625 L 7.09375 -13.359375 L 18.5625 -13.359375 L 18.5625 -9.546875 L 7.09375 -9.546875 Z M 7.09375 -4.078125 "/></g></g></g><g fill="#ffffff" fill-opacity="1"><g transform="translate(200.573887, 234.229921)"><g><path d="M 15.390625 -18.390625 L 11.234375 -18.390625 L 11.234375 -4.078125 L 15.390625 -4.078125 L 15.390625 0 L 1.953125 0 L 1.953125 -4.078125 L 6.109375 -4.078125 L 6.109375 -18.390625 L 1.953125 -18.390625 L 1.953125 -22.4375 L 15.390625 -22.4375 Z M 15.390625 -18.390625 "/></g></g></g><g fill="#ffffff" fill-opacity="1"><g transform="translate(220.109088, 234.229921)"><g><path d="M 20.625 -5.46875 L 20.625 -3.953125 C 20.625 -3.023438 20.664062 -2.269531 20.75 -1.6875 C 20.84375 -1.101562 20.945312 -0.539062 21.0625 0 L 15.9375 0 C 15.800781 -0.40625 15.691406 -0.921875 15.609375 -1.546875 C 15.523438 -2.179688 15.484375 -2.957031 15.484375 -3.875 L 15.484375 -5.0625 C 15.484375 -6.320312 15.140625 -7.238281 14.453125 -7.8125 C 13.773438 -8.382812 12.875 -8.671875 11.75 -8.671875 L 7.125 -8.671875 L 7.125 0 L 1.953125 0 L 1.953125 -22.4375 L 13.796875 -22.4375 C 16.273438 -22.4375 18.132812 -21.867188 19.375 -20.734375 C 20.613281 -19.597656 21.234375 -18.117188 21.234375 -16.296875 C 21.234375 -14.722656 20.78125 -13.425781 19.875 -12.40625 C 18.976562 -11.382812 17.863281 -10.722656 16.53125 -10.421875 C 17.300781 -10.242188 17.992188 -9.96875 18.609375 -9.59375 C 19.234375 -9.226562 19.722656 -8.71875 20.078125 -8.0625 C 20.441406 -7.414062 20.625 -6.550781 20.625 -5.46875 Z M 12.65625 -12.359375 C 13.820312 -12.359375 14.644531 -12.628906 15.125 -13.171875 C 15.613281 -13.722656 15.859375 -14.519531 15.859375 -15.5625 C 15.859375 -16.5 15.601562 -17.21875 15.09375 -17.71875 C 14.59375 -18.21875 13.78125 -18.46875 12.65625 -18.46875 L 7.125 -18.46875 L 7.125 -12.359375 Z M 12.65625 -12.359375 "/></g></g></g><g fill="#ffffff" fill-opacity="1"><g transform="translate(245.076158, 234.229921)"><g><path d="M 19.46875 0 L 17.859375 -4.59375 L 7.796875 -4.59375 L 6.171875 0 L 1.015625 0 L 8.90625 -22.4375 L 16.734375 -22.4375 L 24.640625 0 Z M 9.1875 -8.53125 L 16.46875 -8.53125 L 12.828125 -18.90625 Z M 9.1875 -8.53125 "/></g></g></g><g fill="#30d1ff" fill-opacity="1"><g transform="translate(106.463904, 265.797902)"><g><path d="M 0.796875 0 L 0.796875 -8.25 L 2.53125 -8.25 L 2.53125 0 Z M 0.796875 0 "/></g></g></g><g fill="#30d1ff" fill-opacity="1"><g transform="translate(111.717888, 265.797902)"><g><path d="M 5.828125 0 L 2.234375 -6.359375 C 2.304688 -5.742188 2.34375 -5.25 2.34375 -4.875 L 2.34375 0 L 0.796875 0 L 0.796875 -8.25 L 2.78125 -8.25 L 6.421875 -1.84375 C 6.359375 -2.4375 6.328125 -2.972656 6.328125 -3.453125 L 6.328125 -8.25 L 7.859375 -8.25 L 7.859375 0 Z M 5.828125 0 "/></g></g></g><g fill="#30d1ff" fill-opacity="1"><g transform="translate(122.303902, 265.797902)"><g><path d="M 8.828125 -4.171875 C 8.828125 -3.304688 8.65625 -2.546875 8.3125 -1.890625 C 7.976562 -1.242188 7.492188 -0.742188 6.859375 -0.390625 C 6.222656 -0.046875 5.484375 0.125 4.640625 0.125 C 3.347656 0.125 2.332031 -0.253906 1.59375 -1.015625 C 0.863281 -1.785156 0.5 -2.835938 0.5 -4.171875 C 0.5 -5.492188 0.863281 -6.523438 1.59375 -7.265625 C 2.332031 -8.003906 3.351562 -8.375 4.65625 -8.375 C 5.96875 -8.375 6.988281 -8 7.71875 -7.25 C 8.457031 -6.5 8.828125 -5.472656 8.828125 -4.171875 Z M 7.0625 -4.171875 C 7.0625 -5.054688 6.847656 -5.75 6.421875 -6.25 C 6.003906 -6.757812 5.414062 -7.015625 4.65625 -7.015625 C 3.882812 -7.015625 3.285156 -6.765625 2.859375 -6.265625 C 2.441406 -5.765625 2.234375 -5.066406 2.234375 -4.171875 C 2.234375 -3.265625 2.445312 -2.550781 2.875 -2.03125 C 3.3125 -1.507812 3.898438 -1.25 4.640625 -1.25 C 5.421875 -1.25 6.019531 -1.5 6.4375 -2 C 6.851562 -2.507812 7.0625 -3.234375 7.0625 -4.171875 Z M 7.0625 -4.171875 "/></g></g></g><g fill="#30d1ff" fill-opacity="1"><g transform="translate(133.557887, 265.797902)"><g><path d="M 4.890625 0 L 3.140625 0 L 0.078125 -8.25 L 1.890625 -8.25 L 3.59375 -2.953125 C 3.695312 -2.609375 3.835938 -2.085938 4.015625 -1.390625 L 4.140625 -1.90625 L 4.4375 -2.953125 L 6.140625 -8.25 L 7.921875 -8.25 Z M 4.890625 0 "/></g></g></g><g fill="#30d1ff" fill-opacity="1"><g transform="translate(143.481791, 265.797902)"><g><path d="M 6.640625 0 L 5.90625 -2.109375 L 2.765625 -2.109375 L 2.03125 0 L 0.296875 0 L 3.3125 -8.25 L 5.34375 -8.25 L 8.34375 0 Z M 4.328125 -6.984375 L 4.296875 -6.859375 C 4.253906 -6.710938 4.207031 -6.550781 4.15625 -6.375 C 4.101562 -6.195312 3.765625 -5.207031 3.140625 -3.40625 L 5.515625 -3.40625 L 4.703125 -5.78125 L 4.453125 -6.578125 Z M 4.328125 -6.984375 "/></g></g></g><g fill="#30d1ff" fill-opacity="1"><g transform="translate(154.067804, 265.797902)"><g><path d="M 4.65625 -1.25 C 5.695312 -1.25 6.421875 -1.769531 6.828125 -2.8125 L 8.34375 -2.25 C 8.019531 -1.445312 7.539062 -0.847656 6.90625 -0.453125 C 6.28125 -0.0664062 5.53125 0.125 4.65625 0.125 C 3.332031 0.125 2.304688 -0.25 1.578125 -1 C 0.859375 -1.757812 0.5 -2.816406 0.5 -4.171875 C 0.5 -5.523438 0.847656 -6.5625 1.546875 -7.28125 C 2.242188 -8.007812 3.253906 -8.375 4.578125 -8.375 C 5.546875 -8.375 6.332031 -8.179688 6.9375 -7.796875 C 7.550781 -7.410156 7.984375 -6.835938 8.234375 -6.078125 L 6.703125 -5.671875 C 6.578125 -6.078125 6.328125 -6.398438 5.953125 -6.640625 C 5.578125 -6.890625 5.132812 -7.015625 4.625 -7.015625 C 3.84375 -7.015625 3.25 -6.769531 2.84375 -6.28125 C 2.4375 -5.800781 2.234375 -5.097656 2.234375 -4.171875 C 2.234375 -3.222656 2.441406 -2.5 2.859375 -2 C 3.273438 -1.5 3.875 -1.25 4.65625 -1.25 Z M 5.796875 1.375 C 5.796875 1.738281 5.640625 2.015625 5.328125 2.203125 C 5.023438 2.390625 4.585938 2.484375 4.015625 2.484375 C 3.835938 2.484375 3.640625 2.472656 3.421875 2.453125 L 3.421875 1.765625 C 3.554688 1.796875 3.722656 1.8125 3.921875 1.8125 C 4.453125 1.8125 4.71875 1.675781 4.71875 1.40625 C 4.71875 1.269531 4.660156 1.164062 4.546875 1.09375 C 4.441406 1.03125 4.257812 1 4 1 C 3.851562 1 3.753906 1.003906 3.703125 1.015625 L 4.0625 0 L 4.90625 0 L 4.703125 0.484375 C 5.066406 0.503906 5.335938 0.59375 5.515625 0.75 C 5.703125 0.90625 5.796875 1.113281 5.796875 1.375 Z M 5.796875 1.375 "/></g></g></g><g fill="#30d1ff" fill-opacity="1"><g transform="translate(164.653817, 265.797902)"><g><path d="M 6.640625 0 L 5.90625 -2.109375 L 2.765625 -2.109375 L 2.03125 0 L 0.296875 0 L 3.3125 -8.25 L 5.34375 -8.25 L 8.34375 0 Z M 4.328125 -6.984375 L 4.296875 -6.859375 C 4.253906 -6.710938 4.207031 -6.550781 4.15625 -6.375 C 4.101562 -6.195312 3.765625 -5.207031 3.140625 -3.40625 L 5.515625 -3.40625 L 4.703125 -5.78125 L 4.453125 -6.578125 Z M 5.3125 -8.96875 C 5.132812 -8.96875 4.957031 -9.003906 4.78125 -9.078125 C 4.613281 -9.148438 4.445312 -9.234375 4.28125 -9.328125 C 4.113281 -9.421875 3.957031 -9.503906 3.8125 -9.578125 C 3.664062 -9.648438 3.535156 -9.6875 3.421875 -9.6875 C 3.253906 -9.6875 3.128906 -9.640625 3.046875 -9.546875 C 2.960938 -9.460938 2.894531 -9.269531 2.84375 -8.96875 L 2.046875 -8.96875 C 2.078125 -9.40625 2.140625 -9.734375 2.234375 -9.953125 C 2.328125 -10.179688 2.460938 -10.359375 2.640625 -10.484375 C 2.828125 -10.617188 3.066406 -10.6875 3.359375 -10.6875 C 3.535156 -10.6875 3.710938 -10.644531 3.890625 -10.5625 C 4.066406 -10.488281 4.234375 -10.40625 4.390625 -10.3125 C 4.554688 -10.226562 4.710938 -10.148438 4.859375 -10.078125 C 5.003906 -10.003906 5.128906 -9.96875 5.234375 -9.96875 C 5.390625 -9.96875 5.507812 -10.015625 5.59375 -10.109375 C 5.6875 -10.203125 5.765625 -10.394531 5.828125 -10.6875 L 6.609375 -10.6875 C 6.585938 -10.070312 6.460938 -9.628906 6.234375 -9.359375 C 6.015625 -9.097656 5.707031 -8.96875 5.3125 -8.96875 Z M 5.3125 -8.96875 "/></g></g></g><g fill="#30d1ff" fill-opacity="1"><g transform="translate(175.23983, 265.797902)"><g><path d="M 8.828125 -4.171875 C 8.828125 -3.304688 8.65625 -2.546875 8.3125 -1.890625 C 7.976562 -1.242188 7.492188 -0.742188 6.859375 -0.390625 C 6.222656 -0.046875 5.484375 0.125 4.640625 0.125 C 3.347656 0.125 2.332031 -0.253906 1.59375 -1.015625 C 0.863281 -1.785156 0.5 -2.835938 0.5 -4.171875 C 0.5 -5.492188 0.863281 -6.523438 1.59375 -7.265625 C 2.332031 -8.003906 3.351562 -8.375 4.65625 -8.375 C 5.96875 -8.375 6.988281 -8 7.71875 -7.25 C 8.457031 -6.5 8.828125 -5.472656 8.828125 -4.171875 Z M 7.0625 -4.171875 C 7.0625 -5.054688 6.847656 -5.75 6.421875 -6.25 C 6.003906 -6.757812 5.414062 -7.015625 4.65625 -7.015625 C 3.882812 -7.015625 3.285156 -6.765625 2.859375 -6.265625 C 2.441406 -5.765625 2.234375 -5.066406 2.234375 -4.171875 C 2.234375 -3.265625 2.445312 -2.550781 2.875 -2.03125 C 3.3125 -1.507812 3.898438 -1.25 4.640625 -1.25 C 5.421875 -1.25 6.019531 -1.5 6.4375 -2 C 6.851562 -2.507812 7.0625 -3.234375 7.0625 -4.171875 Z M 7.0625 -4.171875 "/></g></g></g><g fill="#30d1ff" fill-opacity="1"><g transform="translate(186.493812, 265.797902)"><g/></g></g><g fill="#30d1ff" fill-opacity="1"><g transform="translate(191.747794, 265.797902)"><g><path d="M 0.796875 0 L 0.796875 -8.25 L 7.296875 -8.25 L 7.296875 -6.921875 L 2.53125 -6.921875 L 2.53125 -4.84375 L 6.9375 -4.84375 L 6.9375 -3.515625 L 2.53125 -3.515625 L 2.53125 -1.34375 L 7.53125 -1.34375 L 7.53125 0 Z M 0.796875 0 "/></g></g></g><g fill="#30d1ff" fill-opacity="1"><g transform="translate(201.671698, 265.797902)"><g><path d="M 7.65625 0 L 7.65625 -5 C 7.65625 -5.113281 7.65625 -5.226562 7.65625 -5.34375 C 7.664062 -5.457031 7.6875 -5.941406 7.71875 -6.796875 C 7.4375 -5.753906 7.234375 -5.023438 7.109375 -4.609375 L 5.609375 0 L 4.390625 0 L 2.890625 -4.609375 L 2.265625 -6.796875 C 2.316406 -5.890625 2.34375 -5.289062 2.34375 -5 L 2.34375 0 L 0.796875 0 L 0.796875 -8.25 L 3.125 -8.25 L 4.59375 -3.640625 L 4.71875 -3.1875 L 5 -2.09375 L 5.375 -3.40625 L 6.890625 -8.25 L 9.1875 -8.25 L 9.1875 0 Z M 7.65625 0 "/></g></g></g><g fill="#30d1ff" fill-opacity="1"><g transform="translate(213.587795, 265.797902)"><g/></g></g><g fill="#30d1ff" fill-opacity="1"><g transform="translate(218.841777, 265.797902)"><g><path d="M 7.53125 -2.375 C 7.53125 -1.570312 7.226562 -0.953125 6.625 -0.515625 C 6.03125 -0.0859375 5.15625 0.125 4 0.125 C 2.9375 0.125 2.101562 -0.0625 1.5 -0.4375 C 0.90625 -0.820312 0.519531 -1.394531 0.34375 -2.15625 L 2.015625 -2.421875 C 2.128906 -1.984375 2.347656 -1.664062 2.671875 -1.46875 C 3.003906 -1.269531 3.460938 -1.171875 4.046875 -1.171875 C 5.253906 -1.171875 5.859375 -1.539062 5.859375 -2.28125 C 5.859375 -2.507812 5.785156 -2.703125 5.640625 -2.859375 C 5.503906 -3.015625 5.3125 -3.140625 5.0625 -3.234375 C 4.8125 -3.335938 4.328125 -3.460938 3.609375 -3.609375 C 2.992188 -3.753906 2.5625 -3.867188 2.3125 -3.953125 C 2.070312 -4.046875 1.851562 -4.148438 1.65625 -4.265625 C 1.46875 -4.390625 1.304688 -4.535156 1.171875 -4.703125 C 1.035156 -4.867188 0.925781 -5.0625 0.84375 -5.28125 C 0.769531 -5.507812 0.734375 -5.773438 0.734375 -6.078125 C 0.734375 -6.816406 1.015625 -7.382812 1.578125 -7.78125 C 2.140625 -8.175781 2.953125 -8.375 4.015625 -8.375 C 5.046875 -8.375 5.816406 -8.210938 6.328125 -7.890625 C 6.835938 -7.578125 7.164062 -7.050781 7.3125 -6.3125 L 5.640625 -6.078125 C 5.554688 -6.429688 5.378906 -6.695312 5.109375 -6.875 C 4.847656 -7.0625 4.472656 -7.15625 3.984375 -7.15625 C 2.941406 -7.15625 2.421875 -6.828125 2.421875 -6.171875 C 2.421875 -5.953125 2.472656 -5.773438 2.578125 -5.640625 C 2.691406 -5.503906 2.859375 -5.390625 3.078125 -5.296875 C 3.296875 -5.203125 3.738281 -5.082031 4.40625 -4.9375 C 5.195312 -4.769531 5.765625 -4.613281 6.109375 -4.46875 C 6.453125 -4.320312 6.722656 -4.15625 6.921875 -3.96875 C 7.117188 -3.78125 7.269531 -3.550781 7.375 -3.28125 C 7.476562 -3.019531 7.53125 -2.71875 7.53125 -2.375 Z M 7.53125 -2.375 "/></g></g></g><g fill="#30d1ff" fill-opacity="1"><g transform="translate(228.765681, 265.797902)"><g><path d="M 6.640625 0 L 5.90625 -2.109375 L 2.765625 -2.109375 L 2.03125 0 L 0.296875 0 L 3.3125 -8.25 L 5.34375 -8.25 L 8.34375 0 Z M 4.328125 -6.984375 L 4.296875 -6.859375 C 4.253906 -6.710938 4.207031 -6.550781 4.15625 -6.375 C 4.101562 -6.195312 3.765625 -5.207031 3.140625 -3.40625 L 5.515625 -3.40625 L 4.703125 -5.78125 L 4.453125 -6.578125 Z M 4.328125 -6.984375 "/></g></g></g><g fill="#30d1ff" fill-opacity="1"><g transform="translate(239.351694, 265.797902)"><g><path d="M 4.234375 0.125 C 3.097656 0.125 2.226562 -0.148438 1.625 -0.703125 C 1.019531 -1.265625 0.71875 -2.0625 0.71875 -3.09375 L 0.71875 -8.25 L 2.453125 -8.25 L 2.453125 -3.234375 C 2.453125 -2.578125 2.601562 -2.078125 2.90625 -1.734375 C 3.21875 -1.398438 3.675781 -1.234375 4.28125 -1.234375 C 4.894531 -1.234375 5.367188 -1.410156 5.703125 -1.765625 C 6.035156 -2.117188 6.203125 -2.625 6.203125 -3.28125 L 6.203125 -8.25 L 7.9375 -8.25 L 7.9375 -3.1875 C 7.9375 -2.132812 7.613281 -1.316406 6.96875 -0.734375 C 6.320312 -0.160156 5.410156 0.125 4.234375 0.125 Z M 3.46875 -8.96875 L 3.46875 -9.140625 L 4.9375 -10.640625 L 6.453125 -10.640625 L 6.453125 -10.390625 L 4.453125 -8.96875 Z M 3.46875 -8.96875 "/></g></g></g><g fill="#30d1ff" fill-opacity="1"><g transform="translate(249.937707, 265.797902)"><g><path d="M 8.15625 -4.1875 C 8.15625 -3.332031 7.988281 -2.585938 7.65625 -1.953125 C 7.320312 -1.328125 6.847656 -0.84375 6.234375 -0.5 C 5.628906 -0.164062 4.929688 0 4.140625 0 L 0.796875 0 L 0.796875 -8.25 L 3.796875 -8.25 C 5.179688 -8.25 6.253906 -7.898438 7.015625 -7.203125 C 7.773438 -6.503906 8.15625 -5.5 8.15625 -4.1875 Z M 6.421875 -4.1875 C 6.421875 -5.070312 6.191406 -5.75 5.734375 -6.21875 C 5.273438 -6.6875 4.613281 -6.921875 3.75 -6.921875 L 2.53125 -6.921875 L 2.53125 -1.34375 L 4 -1.34375 C 4.738281 -1.34375 5.328125 -1.597656 5.765625 -2.109375 C 6.203125 -2.617188 6.421875 -3.3125 6.421875 -4.1875 Z M 6.421875 -4.1875 "/></g></g></g><g fill="#30d1ff" fill-opacity="1"><g transform="translate(260.52372, 265.797902)"><g><path d="M 0.796875 0 L 0.796875 -8.25 L 7.296875 -8.25 L 7.296875 -6.921875 L 2.53125 -6.921875 L 2.53125 -4.84375 L 6.9375 -4.84375 L 6.9375 -3.515625 L 2.53125 -3.515625 L 2.53125 -1.34375 L 7.53125 -1.34375 L 7.53125 0 Z M 0.796875 0 "/></g></g></g></svg>